
<svg width="869px" height="562px" viewBox="0 0 869 562" version="1.1" xmlns="http://www.w3.org/2000/svg" xmlns:xlink="http://www.w3.org/1999/xlink">
    <defs>
        <style>
            <![CDATA[
                @font-face {
                    font-family: Sacramento;
                    src: url('https://fonts.googleapis.com/css?family=Sacramento&display=swap');
                }
            ]]>
        </style>
    </defs>
    <g id="Page-1" stroke="none" stroke-width="1" fill="none" fill-rule="evenodd">
        <g id="Logo">
            <rect id="Rectangle" stroke="#979797" fill="#5D3A26" x="54.5" y="52.5" width="334" height="210" rx="9"></rect>
            <g id="Group" transform="translate(0.000000, 59.000000)">
                <path d="M377,216 L377,218.493664 C289.666667,258.596242 246,303.26502 246,352.5 C246,401.73498 289.666667,446.403758 377,486.506336 L377,489 L72,489 L72,485.989131 C99.1416282,472.826759 202,418.061076 202,352.5 C202,286.938924 99.1416282,232.173241 72,219.010869 L72,216 L377,216 Z" id="Combined-Shape" fill-opacity="0.313428759" fill="#2FCCCA"></path>
                <g id="Top" transform="translate(0.000000, 190.000000)" fill="#2FCCCA">
                    <rect id="Rectangle" x="0" y="0" width="449" height="27" rx="7"></rect>
                    <ellipse id="Oval" cx="11.5" cy="27" rx="11.5" ry="24"></ellipse>
                    <ellipse id="Oval" cx="437.5" cy="27" rx="11.5" ry="24"></ellipse>
                    <ellipse id="Oval" cx="42" cy="27" rx="19" ry="24"></ellipse>
                    <ellipse id="Oval" cx="407" cy="27" rx="19" ry="24"></ellipse>
                    <ellipse id="Oval" cx="88" cy="27" rx="27" ry="24"></ellipse>
                    <ellipse id="Oval" cx="361" cy="27" rx="27" ry="24"></ellipse>
                    <ellipse id="Oval" cx="151.5" cy="27" rx="36.5" ry="24"></ellipse>
                    <ellipse id="Oval" cx="297.5" cy="27" rx="36.5" ry="24"></ellipse>
                    <ellipse id="Oval" cx="224.5" cy="27" rx="36.5" ry="24"></ellipse>
                </g>
                <rect id="Rectangle" fill="#2FCCCA" x="42" y="476" width="365" height="27" rx="7"></rect>
                <text id="Hard-Knox-Cakes" font-family="Sacramento-Regular, Sacramento" font-size="150" font-weight="normal" line-spacing="170" fill="#000000">
                    <tspan x="513.248047" y="140">Hard </tspan>
                    <tspan x="509" y="310">Knox </tspan>
                    <tspan x="524.124512" y="480">Cakes</tspan>
                </text>
            </g>
            <g id="flower" transform="translate(176.000000, 0.000000)" fill-rule="nonzero">
                <path d="M99.9907268,56.1935755 C99.9677455,55.9775784 99.4032524,50.8325755 97.2992325,44.6269398 C96.5921658,42.5414886 95.804776,40.6017408 94.9395173,38.8090313 C94.9406329,38.7979089 94.9430872,38.7870089 94.9442028,38.7758865 C95.5934815,31.4924897 94.3431181,23.9632876 94.2895693,23.646299 C94.2458378,23.3878143 94.141864,23.1433438 93.9856801,22.9326854 C93.6922776,22.5362828 90.8548629,19.0271635 81.527339,17.5011693 C80.5485123,15.3930283 79.7836576,14.0129601 79.6696434,13.8096425 C79.4699512,13.453503 79.1462043,13.1827836 78.7599839,13.048425 C78.6678354,13.0163924 77.7833885,12.7111936 76.3652389,12.2912115 C73.7317557,5.07032257 67.8195269,1.152566 67.5640547,0.986397245 C67.4620889,0.9201077 67.3532065,0.864940563 67.2391922,0.82223052 C66.9033969,0.696102428 59.0042861,-2.17080914 51.5246405,3.60283222 C48.9168161,2.94483063 46.08788,2.43030809 43.0420714,2.06326867 C36.011566,1.21596372 30.5141168,1.49980754 30.283411,1.51226464 C29.9900084,1.52805845 29.7059769,1.62081933 29.4600988,1.78075954 C29.0214453,2.06616049 22.788147,6.1758898 17.3730291,12.5029821 C9.74835562,13.5871943 4.51463411,18.9602066 4.29062181,19.1939996 C4.16790591,19.3219073 4.0663864,19.4682781 3.99007942,19.6282184 C3.84259722,19.9360866 0.522797487,27.0599881 4.19177973,35.2525305 C1.85415343,38.4898182 0.396734791,40.9985883 0.220916377,41.3044545 C0.0227859807,41.649694 -0.0450424432,42.0541047 0.0294795752,42.4449461 C0.0794584138,42.7065451 1.28341294,48.9290868 3.95728081,55.4021051 C3.99945045,55.5042088 4.04251258,55.6029757 4.08490534,55.7039672 C4.04652873,55.764918 4.01060644,55.8276484 3.97959279,55.8948277 C1.20130485,61.9233946 0.0651787456,69.3845275 0.0183235844,69.6990692 C-0.035671411,70.060325 0.030818294,70.4289215 0.207082948,70.748802 C0.264424741,70.8526852 1.63504977,73.3205248 3.82229332,75.8126113 C6.93146795,79.3550979 10.0709869,81.1513666 13.1538334,81.1513666 C13.1819465,81.1513666 13.2091671,81.1484747 13.2370571,81.1471401 C17.0651237,88.2272193 21.5600955,93.3501999 21.8909822,93.7232454 C22.0951368,93.9532568 22.3586413,94.1225398 22.6531595,94.2126313 C22.8617765,94.2764739 27.8393565,95.7840049 34.424961,96.3379008 C36.0405716,96.4738166 37.6008484,96.5416633 39.1071303,96.5416633 C40.3702116,96.5416633 41.5940238,96.4929471 42.77879,96.3977393 C42.8267607,96.4451208 42.8767396,96.4909451 42.9314039,96.5332102 C48.825337,101.097846 55.5715877,102.873427 55.8560655,102.946835 C55.9932842,102.982204 56.1342959,103 56.2753076,103 C56.3730341,103 56.4709837,102.991325 56.5678177,102.974196 C57.8117107,102.753972 59.6700756,101.631499 61.5389272,99.9713686 C63.0853706,98.5977514 65.3455744,96.2244522 67.4277285,92.6768494 C68.2231506,92.6345842 68.7028582,92.5974354 68.7749259,92.5916517 C69.1919369,92.558507 69.5815041,92.3709832 69.8666512,92.0657843 C69.9661626,91.9592317 71.3013116,90.5224392 73.0871626,88.2679273 C73.6396073,88.295066 74.1864739,88.3090802 74.7250852,88.3090802 C81.0933709,88.3090802 86.318837,86.5499604 86.5651613,86.465875 C86.7925204,86.3880181 87.0002449,86.2625574 87.1742784,86.0977233 C88.5660998,84.780163 91.2638415,79.5223789 90.8115776,71.6261374 C91.7977672,70.3991135 92.7721314,69.088894 93.7335547,67.6948115 C97.603791,62.082445 99.7664914,57.2479797 99.8566318,57.0448846 C99.9753316,56.7779468 100.021517,56.4840928 99.9907268,56.1935755 Z" id="Path" fill="#FFC6C6"></path>
                <path d="M90.2630561,24.4289157 C90.453617,25.6521358 90.9301354,29.067908 91,33 C88.9370213,30.2455641 86.5841393,28.0335159 83.9534236,26.3818182 C83.3731528,24.4690033 82.6882012,22.6422782 82,21 C87.2261509,22.1117196 89.544913,23.7982475 90.2630561,24.4289157 L90.2630561,24.4289157 Z" id="Path" fill="#FD9393"></path>
                <path d="M81.0524657,25.7516183 C83.0490678,31.731285 83.5134196,36.6008906 82.4320007,40 C78.7550878,33.9658949 74.8589654,30.6508577 70.8416018,30.1367658 C70.4874088,28.5887826 70.1932824,27.5941837 70.1704527,27.5182333 C70.0239436,27.0269703 69.6546786,26.6309746 69.1717084,26.4476839 C68.8614017,26.3298072 65.2363544,24.973017 60.7404534,24.1063923 C60.8738853,20.5013827 57.9383838,17.431099 52,14.9581015 C53.8319178,13.4423863 57.6458089,12.3242033 65.5149655,13.4733372 C70.5778411,14.2128657 75.295168,15.639899 76.9284895,16.1634299 C77.6570454,17.5377808 79.5718594,21.3177397 81.0524657,25.7516183 Z" id="Path" fill="#FD9393"></path>
                <path d="M78.9705832,59.78296 C76.2067759,64.2561299 73.3565666,66.6727988 70.4740358,67 C72.0717332,63.433978 72.5696537,60.3698589 71.9519534,57.8480102 C71.3327744,55.3205548 69.6683215,53.4445864 67,52.2485865 C68.2227254,51.609434 69.2268052,50.6166173 69.9961843,49.2773126 C71.6859874,46.3360902 72.1708103,41.7781485 71.4377665,35.729524 C71.3657297,35.1350001 71.2852427,34.5568475 71.2001083,34 C76.602873,35.9358469 81.3184357,46.4681817 83,51.276402 C82.5175009,52.6323022 81.1154227,56.3115775 78.9705832,59.78296 Z" id="Path" fill="#FD9393"></path>
                <path d="M33.5961113,80.9293566 C29.0359867,80.7143492 24.5734851,80.0621163 22.6964926,79.7618925 C20.2233768,73.8183791 17.426005,64.7323485 18.1026731,60 C19.8635796,62.8038368 21.8709668,64.6805632 24.1107567,65.603522 C25.1963798,66.0507986 26.3131591,66.2741092 27.4583253,66.2738907 C29.3814751,66.2738907 31.3833235,65.6437266 33.4458688,64.3873315 C33.4497922,64.3910461 33.4539464,64.3945422 33.4578697,64.3982567 C32.2229273,68.0040013 32.5947256,71.148048 34.5716488,73.749769 C36.8038228,76.6873299 40.8379833,78.4373243 45,79.4784935 C43.7138228,80.4709363 40.245091,81.2424721 33.5961113,80.9293566 L33.5961113,80.9293566 Z" id="Path" fill="#FD9393"></path>
                <path d="M31.0789362,20.7570849 C33.9677439,17.9899066 37.2281907,15.7897907 38.4502864,15 C44.805184,16.0332179 56.4917737,19.301481 57,23.7860175 C52.8808186,23.3256836 48.5437948,23.5494899 45.6146863,25.6088105 C43.8007129,26.8843775 42.6772998,28.6927244 42.2518536,31 C41.0221334,29.1989839 39.351936,28.0553721 37.2647882,27.5911572 C34.2690199,26.9251284 30.5203884,27.7369116 26.088821,30.0036519 C25.4520678,26.9652324 28.355253,23.3662188 31.0789362,20.7570849 Z" id="Path" fill="#FD9393"></path>
                <path d="M33,51 C34.2399275,53.8693778 36.1029969,55.7129616 37.7736221,56.8711022 C40.442195,58.7211525 43.794624,59.6562006 47.5076117,59.6562006 C49.8855458,59.6562006 52.4114295,59.271016 55,58.4984912 C53.7410035,61.9554534 50.4738373,64.8375485 47.5858606,66 C39.4830431,65.6449921 33.0013151,59.0539589 33,51 L33,51 Z" id="Path" fill="#FD9393"></path>
                <path d="M47.6102457,36 C47.7409207,36 47.8701507,36.006542 48,36.0101295 C47.3990599,36.6951384 46.9203309,37.505711 46.6224414,38.4074494 C46.1261652,39.910206 46.1655948,41.4564351 46.6930431,42.9157192 C46.1866514,44.0584558 45.387944,44.3716268 43.8693885,44.8797911 C41.6553444,45.6207233 38.7129881,46.6098288 37.55735,52 C35.9122481,49.9120525 35.0390167,47.0717772 35,43.6378696 C37.4489702,39.0897148 42.1827926,36 47.6102457,36 L47.6102457,36 Z" id="Path" fill="#FD9393"></path>
                <path d="M53.729382,54.6498671 C48.0591237,56.5384744 42.7629936,56.4362033 39,54.4027634 C39.6024211,49.3361058 41.4583693,48.7613212 43.8046755,48.0377786 C45.0682905,47.6481152 46.548356,47.1904776 47.7038553,46 C48.0678957,46.3594986 48.4709718,46.7047412 48.9143993,47.0322155 C52.0837439,49.3716424 53.7866197,51.9056944 54,54.5851987 C53.9094285,54.5998679 53.818857,54.6201155 53.729382,54.6498671 Z" id="Path" fill="#FD9393"></path>
                <path d="M57.307652,56.6459961 C57.7565168,53.3646035 57.0690797,48.4627404 51.2440447,43.7440073 C49.3648091,42.2215871 48.6152837,40.34236 49.1881125,38.5882242 C49.6671709,37.1207651 51.0046219,36.0395719 52.3790707,36 C57.9933881,38.1808532 62,43.7870967 62,50.3443857 C62,56.2984226 58.6954967,61.4660773 53.8849257,64 C55.619572,61.924672 56.9317199,59.3936072 57.307652,56.6459961 Z" id="Path" fill="#FD9393"></path>
                <path d="M65.6098449,49 C64.4825671,39.6726718 57.0072891,32.4412488 47.9758342,32.4412488 C47.3077011,32.4412488 46.6490196,32.4843384 46,32.5613162 C46.189875,30.7380873 46.8643093,29.4016364 48.0464072,28.5034874 C52.2938102,25.2767045 62.1738215,28.0045906 66.489277,29.6334674 C67.541571,33.8614103 69.1742019,43.3673809 66.7043566,47.6913777 C66.3966499,48.2299978 66.0318127,48.6617915 65.6098449,49 L65.6098449,49 Z" id="Path" fill="#FD9393"></path>
                <path d="M36.6386679,30.1579326 C38.1032983,30.5106751 39.2079754,31.4924864 40,33.1488523 C33.6905292,36.1393172 29.2743663,42.9101083 29.2743663,50.7698297 C29.2743663,54.8803828 30.4855234,58.6911844 32.5398239,61.821973 C30.5894581,63.0696489 28.8683848,63.3241421 27.3063952,62.5954593 C21.7403754,59.9998113 18.8162053,45.9785813 18,39.7429309 C21.8617033,36.1475047 31.1479478,28.8356599 36.6386679,30.1579326 L36.6386679,30.1579326 Z" id="Path" fill="#FD9393"></path>
                <path d="M38.1542005,71.2372773 C37.0739976,69.825154 36.7546036,68.1546267 37.1850912,66.1674634 C40.2351562,68.0713465 43.8898617,69.1839609 47.8168375,69.1839609 C57.0055055,69.1839609 64.7085246,63.1047229 66.6292142,55 C68.4003371,55.7358199 69.4566367,56.7683655 69.8343093,58.1327472 C70.5703043,60.791718 68.8383372,65.0443587 64.9578022,70.1066795 C62.5048652,73.3066503 59.8572867,75.9733283 58.8028083,76.9992371 C53.713903,77.0311362 41.857168,76.0780172 38.1542005,71.2372773 Z" id="Path" fill="#FD9393"></path>
                <path d="M64.8528003,3.49486579 C65.5873372,3.97218671 68.8412148,6.22805377 71,10 C69.2117316,9.60481161 67.1731316,9.2147813 65.051593,8.9265239 C64.7674796,8.88783829 64.486398,8.85173172 64.208348,8.81800581 C64.1771648,8.79201701 64.1459816,8.76602822 64.1121999,8.7420233 C61.6324879,6.97260299 58.5864981,5.50949336 55,4.36043153 C59.6192242,2.15713722 63.9478386,3.22862943 64.8528003,3.49486579 Z" id="Path" fill="#FD9393"></path>
                <path d="M30.261269,5.0260404 C33.0081463,4.94445743 47.4351919,4.76880651 58,9.54732973 C53.3387491,9.77076804 50.0395094,11.0715751 48.1416546,13.4372659 C42.9194424,11.8124948 37.9413921,11.094823 37.7218954,11.0636105 C37.3270275,11.0078586 36.9231083,11.0859974 36.5825489,11.2851115 C36.3929218,11.3959696 31.8916546,14.0442948 27.86355,17.7432967 C27.5440351,18.0366941 27.2233888,18.3425764 26.9050054,18.657069 C26.7724022,18.6150936 26.6330105,18.5864642 26.4872828,18.5769929 C21.7782857,18.2672359 17.1113776,20.6796378 13,24 C16.7782857,14.2765587 28.0538559,6.48075728 30.261269,5.0260404 Z" id="Path" fill="#FD9393"></path>
                <path d="M7.18197482,22.430355 C7.97032477,21.7541326 10.8896115,19.4116061 15,18 C12.4428759,21.4752915 10.4694642,25.3988603 9.94711893,29.5834348 C9.94204527,29.6245432 9.94035405,29.6652166 9.93866283,29.70589 C8.82777313,30.8016791 7.78453221,31.9139986 6.82174503,33 C5.00392553,27.8196885 6.69949401,23.4885157 7.18197482,22.430355 Z" id="Path" fill="#FD9393"></path>
                <path d="M3,42.6444191 C3.89332317,41.1047836 6.65835021,36.5198178 10.3870702,32.0437358 C13.9351525,27.784738 18.9908136,22.8765376 24,22 C22.0195628,24.9697039 20.8202079,28.3412301 21.9649769,31.5904328 C21.699501,31.76082 21.4324906,31.9343964 21.1628494,32.1143508 C16.7744953,35.043508 13.457252,38.1653759 13.3182663,38.2970387 C12.9249849,38.6687927 12.7290018,39.215262 12.7921373,39.7637813 C12.8180053,39.9879271 13.444318,45.3248292 15.1101739,51.2113895 C15.6290686,53.0448747 16.1889576,54.7200456 16.7885254,56.2375854 C15.3401361,58.4068337 15.018759,61.9519362 15.8261478,67 C13.7593377,66.1927107 11.9207362,64.3578588 10.3206464,61.9949886 C10.2866672,61.938041 10.2502766,61.8826879 10.2103785,61.8302961 C6.37643276,56.0728929 3.92839844,47.3225513 3,42.6444191 Z" id="Path" fill="#FD9393"></path>
                <path d="M3,70.0156372 C3.2283458,68.4896965 3.94561335,64.1495193 5.26060386,60 C5.76554303,61.0965086 6.28571827,62.1089832 6.82191093,63.0331317 C6.81878558,68.1616927 8.17967965,73.3523757 10,78 C7.01255721,76.7681785 4.19642259,72.337868 3,70.0156372 Z" id="Path" fill="#FD9393"></path>
                <path d="M24.3708574,91.8919164 C22.6286256,89.725442 13.962979,78.4846139 12,67 C13.7622398,68.5779385 15.64013,69.5399727 17.6270746,69.8803529 C17.7550376,70.4383006 17.892455,71.0088975 18.0413054,71.5955935 C19.4957304,77.3236413 21.416275,82.2474257 21.4974062,82.4544137 C21.7091388,82.9946524 22.1677828,83.3863196 22.7161329,83.4948734 C22.9491927,83.5411007 28.4927176,84.6298575 34.4005633,84.9403395 C34.5848125,84.949999 34.7653239,84.9578185 34.9460552,84.965868 C36.8633017,88.759498 41.5792445,91.328219 49,92.6294836 C39.0131683,95.7844406 26.8364541,92.6016552 24.3708574,91.8919164 Z" id="Path" fill="#FD9393"></path>
                <path d="M56.2388306,100 C55.0788708,99.6356256 51.5864866,98.4281757 48,96.0972939 C50.8762681,95.4443171 53.4431006,94.4093601 55.6884167,93 C57.863156,93.1531041 59.9376466,93.2063674 61.7457258,93.2063674 C62.1799955,93.2063674 62.5985814,93.2032474 63,93.1981216 C60.2294911,97.449602 57.2985418,99.5375677 56.2388306,100 Z" id="Path" fill="#FD9393"></path>
                <path d="M67.3831574,88.8299415 C65.5207426,88.9471038 59.8496017,89.218957 53.8982202,88.6606054 C46.6734564,87.9828032 41.5237038,86.3031717 39,83.8523743 C44.5189412,83.6153037 47.761256,82.225832 48.8523499,79.6457442 C52.835897,80.3576425 56.4557461,80.4464295 58.0060746,80.4464295 C58.4317067,80.4464295 58.7016251,80.4397934 58.780031,80.4375051 C59.1968781,80.4256058 59.5939589,80.2491758 59.8908911,79.9441419 C60.0338666,79.7972314 63.4286007,76.2951769 66.616229,71.6963276 C67.3203448,70.6803108 67.9572555,69.6933557 68.5269612,68.73592 C68.9051544,68.7805424 69.2782962,68.8045698 69.6457278,68.8045698 C73.2310959,68.8045698 76.2972719,66.7533141 78.7998918,64 C80.4286262,71.6462133 71.7080008,83.8352119 67.3831574,88.8299415 L67.3831574,88.8299415 Z" id="Path" fill="#FD9393"></path>
                <path d="M84.6177932,83.5581286 C83.3864971,83.9045824 79.5388379,84.8828295 75,85 C75.451829,84.4029784 75.9095288,83.7777179 76.3642932,83.1307514 C76.3764865,83.1261152 76.3891314,83.1229541 76.4013247,83.1178964 C80.0324402,81.6659096 83.5772994,79.2818273 87,76 C86.6427819,79.9934905 85.2992624,82.6844077 84.6177932,83.5581286 L84.6177932,83.5581286 Z" id="Path" fill="#FD9393"></path>
                <path d="M81,78 C83.9738636,71.8604271 84.5383339,66.8220369 82.6796963,62.9741859 C86.0578103,58.1515753 87.9181894,52.7473745 88.0625179,52.3191245 C88.1809412,51.9678757 88.1794174,51.5866208 88.0581641,51.2362545 C88.0063538,51.0866649 87.0136873,48.2429177 85.2726023,44.7414615 C85.3292018,44.6713 85.3823181,44.5973877 85.428033,44.5161945 C87.2524932,41.2803813 87.4279514,37.1446033 86.815807,33 C90.715724,36.9356632 93.140791,42.349572 94.5601301,46.587062 C96.1745194,51.4065837 96.8223649,55.6370135 97,56.9755979 C95.8941346,59.3500574 89.9191962,71.5354338 81,78 L81,78 Z" id="Path" fill="#FD9393"></path>
            </g>
        </g>
    </g>
</svg>