
<svg width="244px" height="244px" viewBox="0 0 244 244" version="1.1" xmlns="http://www.w3.org/2000/svg" xmlns:xlink="http://www.w3.org/1999/xlink">
    <g id="Page-1" stroke="none" stroke-width="1" fill-rule="evenodd">
        <path d="M121.992,-0.0003 C54.618,-0.0003 0,54.6177 0,121.9917 C0,173.6737 32.154,217.8157 77.534,235.5907 C76.468,225.9387 75.505,211.1337 77.958,200.5967 C80.175,191.0757 92.263,139.9587 92.263,139.9587 C92.263,139.9587 88.614,132.6507 88.614,121.8467 C88.614,104.8837 98.446,92.2197 110.688,92.2197 C121.096,92.2197 126.123,100.0337 126.123,109.4037 C126.123,119.8707 119.459,135.5197 116.019,150.0217 C113.146,162.1637 122.109,172.0657 134.085,172.0657 C155.767,172.0657 172.433,149.2037 172.433,116.2027 C172.433,86.9937 151.446,66.5717 121.477,66.5717 C86.766,66.5717 66.392,92.6067 66.392,119.5127 C66.392,129.9977 70.431,141.2407 75.471,147.3527 C76.467,148.5607 76.614,149.6187 76.317,150.8517 C75.391,154.7047 73.333,162.9907 72.929,164.6867 C72.396,166.9197 71.16,167.3937 68.849,166.3177 C53.612,159.2257 44.087,136.9497 44.087,119.0577 C44.087,80.5757 72.047,45.2347 124.692,45.2347 C167.01,45.2347 199.898,75.3907 199.898,115.6917 C199.898,157.7347 173.388,191.5707 136.595,191.5707 C124.233,191.5707 112.612,185.1487 108.634,177.5627 C108.634,177.5627 102.517,200.8547 101.034,206.5627 C98.279,217.1587 90.845,230.4407 85.872,238.5437 C97.286,242.0777 109.416,243.9837 121.992,243.9837 C189.367,243.9837 243.985,189.3657 243.985,121.9917 C243.985,54.6177 189.367,-0.0003 121.992,-0.0003" id="Fill-1" mask="url(#mask-2)"></path>
    </g>
</svg>